<?xml version="1.0" encoding="utf-8"?><svg viewBox="0 0 189 189" xmlns="http://www.w3.org/2000/svg" xmlns:xlink="http://www.w3.org/1999/xlink"><style>:root>svg{display:none}:root>svg:target{display:block}</style><svg viewBox="0 0 189 189" id="button-order" xmlns="http://www.w3.org/2000/svg"><g filter="url(#aa)"><rect x="9" y="37.234" width="140" height="140" rx="70" transform="rotate(-15 9 37.234)" fill-opacity=".64" shape-rendering="crispEdges"/></g><defs><filter id="aa" x="-15" y="-23" width="219.464" height="227.464" filterUnits="userSpaceOnUse" color-interpolation-filters="sRGB"><feFlood flood-opacity="0" result="BackgroundImageFix"/><feGaussianBlur in="BackgroundImageFix" stdDeviation="12"/><feComposite in2="SourceAlpha" operator="in" result="effect1_backgroundBlur_10_7146"/><feColorMatrix in="SourceAlpha" values="0 0 0 0 0 0 0 0 0 0 0 0 0 0 0 0 0 0 127 0" result="hardAlpha"/><feOffset dy="8"/><feGaussianBlur stdDeviation="12"/><feComposite in2="hardAlpha" operator="out"/><feColorMatrix values="0 0 0 0 0.0916667 0 0 0 0 0.0916667 0 0 0 0 0.0916667 0 0 0 0.32 0"/><feBlend in2="effect1_backgroundBlur_10_7146" result="effect2_dropShadow_10_7146"/><feColorMatrix in="SourceAlpha" values="0 0 0 0 0 0 0 0 0 0 0 0 0 0 0 0 0 0 127 0" result="hardAlpha"/><feOffset dy="4"/><feGaussianBlur stdDeviation="2"/><feComposite in2="hardAlpha" operator="out"/><feColorMatrix values="0 0 0 0 0.0901961 0 0 0 0 0.0901961 0 0 0 0 0.0901961 0 0 0 0.2 0"/><feBlend in2="effect2_dropShadow_10_7146" result="effect3_dropShadow_10_7146"/><feBlend in="SourceGraphic" in2="effect3_dropShadow_10_7146" result="shape"/></filter></defs></svg><svg viewBox="0 0 18 18" id="cross-modal" xmlns="http://www.w3.org/2000/svg"><path fill-rule="evenodd" clip-rule="evenodd" d="M7.232 9L.116 16.116l1.767 1.768L9 10.768l7.116 7.116 1.767-1.768L10.767 9l7.116-7.116L16.116.116 9 7.232 1.883.116.116 1.884 7.232 9z"/></svg><svg viewBox="0 0 14 15" id="dot" xmlns="http://www.w3.org/2000/svg"><path d="M1.952 12.28C.656 10.984.008 9.328.008 7.312s.648-3.648 1.944-4.896C3.248 1.12 4.88.472 6.848.472s3.6.648 4.896 1.944c1.296 1.248 1.944 2.88 1.944 4.896s-.648 3.672-1.944 4.968c-1.296 1.248-2.928 1.872-4.896 1.872s-3.6-.624-4.896-1.872z"/></svg><svg viewBox="0 0 4 4" id="dot-mini" xmlns="http://www.w3.org/2000/svg"><path d="M1.824.432c.373 0 .693.133.96.4.277.267.416.587.416.96s-.139.693-.416.96a1.31 1.31 0 01-.96.4 1.29 1.29 0 01-.944-.4 1.31 1.31 0 01-.4-.96c0-.373.133-.693.4-.96s.581-.4.944-.4z" fill-opacity=".64"/></svg><svg viewBox="0 0 32 32" id="icon-tg" xmlns="http://www.w3.org/2000/svg"><circle cx="16" cy="16" r="13.333"/><path fill-rule="evenodd" clip-rule="evenodd" d="M32 16c0 8.837-7.163 16-16 16S0 24.837 0 16 7.163 0 16 0s16 7.163 16 16zm-21.286-1.466c-1.602.7-3.25 1.42-4.755 2.249-.786.575.259.983 1.24 1.365.155.06.31.12.454.18l.368.116c1.09.348 2.306.735 3.365.152 1.739-.999 3.38-2.154 5.02-3.308.537-.378 1.074-.756 1.615-1.128l.085-.055c.46-.299 1.496-.97 1.113-.045-.906.99-1.876 1.867-2.851 2.749a61.465 61.465 0 00-1.961 1.825c-.561.455-1.144 1.372-.516 2.01 1.447 1.013 2.916 2 4.385 2.989l1.432.964c.808.645 2.071.123 2.249-.885l.237-1.391c.439-2.563.877-5.127 1.265-7.699.052-.403.112-.806.172-1.21.145-.978.29-1.957.335-2.94-.117-.982-1.307-.766-1.969-.545-3.404 1.295-6.773 2.686-10.13 4.101-.38.169-.765.337-1.153.506z"/></svg><svg viewBox="0 0 32 32" id="icon-vk" xmlns="http://www.w3.org/2000/svg"><circle cx="16" cy="16" r="13.333"/><path fill-rule="evenodd" clip-rule="evenodd" d="M0 16C0 7.163 7.163 0 16 0s16 7.163 16 16-7.163 16-16 16S0 24.837 0 16zm16.836 5.25s.308-.033.466-.2c.144-.152.14-.44.14-.44s-.02-1.342.615-1.54c.626-.195 1.43 1.298 2.283 1.873.645.434 1.134.339 1.134.339l2.28-.031s1.191-.072.626-.992c-.046-.076-.33-.681-1.694-1.925-1.43-1.302-1.238-1.092.483-3.344 1.049-1.372 1.468-2.209 1.337-2.567-.125-.343-.896-.252-.896-.252l-2.566.016s-.19-.025-.331.057c-.138.081-.227.27-.227.27s-.406 1.062-.948 1.965c-1.143 1.904-1.6 2.005-1.786 1.887-.435-.276-.327-1.108-.327-1.699 0-1.846.286-2.615-.555-2.814-.278-.067-.484-.11-1.198-.118-.915-.009-1.69.004-2.129.214-.292.14-.517.453-.38.471.17.023.554.102.757.374.263.352.254 1.14.254 1.14s.151 2.173-.353 2.442c-.345.185-.82-.192-1.839-1.92a15.942 15.942 0 01-.915-1.864s-.076-.182-.213-.28c-.164-.12-.393-.156-.393-.156l-2.439.015s-.366.01-.5.167c-.12.138-.01.426-.01.426s1.91 4.384 4.071 6.594c1.983 2.026 4.233 1.893 4.233 1.893h1.02z"/></svg><svg viewBox="0 0 16 16" id="left-arrow" xmlns="http://www.w3.org/2000/svg"><path d="M7.95 12.9L3 7.95m0 0L7.95 3M3 7.95h9.166"/></svg><svg viewBox="0 0 18 18" id="minus-footer-svg" xmlns="http://www.w3.org/2000/svg"><path fill-rule="evenodd" clip-rule="evenodd" d="M12 8.25H6v1.5h6v-1.5z"/><rect x="1" y="1" width="16" height="16" rx="8"/></svg><svg viewBox="0 0 18 18" id="minus-svg" xmlns="http://www.w3.org/2000/svg"><path fill-rule="evenodd" clip-rule="evenodd" d="M12 8.25H6v1.5h6v-1.5z"/><rect x="1" y="1" width="16" height="16" rx="8"/></svg><svg viewBox="0 0 61 60" id="phone" xmlns="http://www.w3.org/2000/svg"><path d="M60 44.733V56.52a3.334 3.334 0 01-3.1 3.327c-1.457.1-2.647.153-3.567.153C23.877 60 0 36.123 0 6.667c0-.92.05-2.11.153-3.567A3.333 3.333 0 013.48 0h11.787a1.667 1.667 0 011.66 1.5 43.3 43.3 0 00.213 1.84 46.335 46.335 0 004.027 13.337 1.52 1.52 0 01-.49 1.89l-7.194 5.14A43.49 43.49 0 0036.297 46.52l5.133-7.18a1.54 1.54 0 011.91-.497 46.336 46.336 0 0013.333 4.017c.464.067 1.074.14 1.834.213a1.667 1.667 0 011.496 1.66H60z"/></svg><svg viewBox="0 0 18 18" id="plus-footer-svg" xmlns="http://www.w3.org/2000/svg"><path fill-rule="evenodd" clip-rule="evenodd" d="M8.25 9.75V12h1.5V9.75H12v-1.5H9.75V6h-1.5v2.25H6v1.5h2.25z"/><rect x="1" y="1" width="16" height="16" rx="8"/></svg><svg viewBox="0 0 18 18" id="plus-svg" xmlns="http://www.w3.org/2000/svg"><path fill-rule="evenodd" clip-rule="evenodd" d="M8.25 9.75V12h1.5V9.75H12v-1.5H9.75V6h-1.5v2.25H6v1.5h2.25z"/><rect x="1" y="1" width="16" height="16" rx="8"/></svg><svg viewBox="0 0 16 16" id="right-arrow" xmlns="http://www.w3.org/2000/svg"><path d="M7.216 3l4.95 4.95m0 0l-4.95 4.95m4.95-4.95H3"/></svg><svg viewBox="0 0 32 32" id="tg-Shape" xmlns="http://www.w3.org/2000/svg"><path clip-rule="evenodd" d="M32 16c0 8.837-7.163 16-16 16S0 24.837 0 16 7.163 0 16 0s16 7.163 16 16zm-21.286-1.466c-1.602.7-3.25 1.42-4.755 2.249-.786.575.259.983 1.24 1.365.155.06.31.12.454.18l.368.116c1.09.348 2.306.735 3.365.152 1.739-.999 3.38-2.154 5.02-3.308.537-.378 1.074-.756 1.615-1.128l.085-.055c.46-.299 1.496-.97 1.113-.045-.906.99-1.876 1.867-2.851 2.749a61.465 61.465 0 00-1.961 1.825c-.561.455-1.144 1.372-.516 2.01 1.447 1.013 2.916 2 4.385 2.989l1.432.964c.808.645 2.071.123 2.249-.885l.237-1.391c.439-2.563.877-5.127 1.265-7.699.052-.403.112-.806.172-1.21.145-.978.29-1.957.335-2.94-.117-.982-1.307-.766-1.969-.545-3.404 1.295-6.773 2.686-10.13 4.101-.38.169-.765.337-1.153.506z"/></svg><svg viewBox="0 0 32 32" id="vk-Shape" xmlns="http://www.w3.org/2000/svg"><path fill-rule="evenodd" clip-rule="evenodd" d="M0 16C0 7.163 7.163 0 16 0s16 7.163 16 16-7.163 16-16 16S0 24.837 0 16zm16.836 5.25s.308-.033.466-.2c.144-.152.14-.44.14-.44s-.02-1.342.615-1.54c.626-.195 1.43 1.298 2.283 1.873.645.434 1.134.339 1.134.339l2.28-.031s1.191-.072.626-.992c-.046-.076-.33-.681-1.694-1.925-1.43-1.302-1.238-1.092.483-3.344 1.049-1.372 1.468-2.209 1.337-2.567-.125-.343-.896-.252-.896-.252l-2.566.016s-.19-.025-.331.057c-.138.081-.227.27-.227.27s-.406 1.062-.948 1.965c-1.143 1.904-1.6 2.005-1.786 1.887-.435-.276-.327-1.108-.327-1.699 0-1.846.286-2.615-.555-2.814-.278-.067-.484-.11-1.198-.118-.915-.009-1.69.004-2.129.214-.292.14-.517.453-.38.471.17.023.554.102.757.374.263.352.254 1.14.254 1.14s.151 2.173-.353 2.442c-.345.185-.82-.192-1.839-1.92a15.942 15.942 0 01-.915-1.864s-.076-.182-.213-.28c-.164-.12-.393-.156-.393-.156l-2.439.015s-.366.01-.5.167c-.12.138-.01.426-.01.426s1.91 4.384 4.071 6.594c1.983 2.026 4.233 1.893 4.233 1.893h1.02z"/></svg></svg>